<svg width="32" height="32" viewBox="0 0 32 32" fill="none" xmlns="http://www.w3.org/2000/svg">
<path d="M25.6966 0H6.30342C2.82214 0 0 2.82214 0 6.30342V25.6966C0 29.1779 2.82214 32 6.30342 32H25.6966C29.1779 32 32 29.1779 32 25.6966V6.30342C32 2.82214 29.1779 0 25.6966 0Z" fill="#142328"/>
<path d="M15.3365 21.4404C15.3404 21.1109 15.2463 20.7876 15.0661 20.5116C14.8859 20.2357 14.6277 20.0195 14.3243 19.8906C14.021 19.7618 13.6862 19.726 13.3624 19.7879C13.0387 19.8497 12.7407 20.0064 12.5062 20.2381C12.2718 20.4697 12.1115 20.7658 12.0457 21.0888C11.9799 21.4118 12.0117 21.747 12.1369 22.0519C12.262 22.3567 12.4751 22.6175 12.7488 22.8011C13.0226 22.9846 13.3447 23.0826 13.6743 23.0826C13.8917 23.0855 14.1075 23.0452 14.3092 22.9639C14.5109 22.8827 14.6944 22.7622 14.849 22.6094C15.0037 22.4565 15.1264 22.2745 15.2101 22.0738C15.2938 21.8732 15.3367 21.6578 15.3365 21.4404ZM16.6933 18.7566V24.1442H15.3105V23.6593C14.818 24.0578 14.2021 24.2723 13.5685 24.2659C13.191 24.2759 12.8154 24.2102 12.4637 24.0727C12.112 23.9352 11.7914 23.7286 11.5209 23.4651C11.2503 23.2017 11.0353 22.8867 10.8884 22.5388C10.7416 22.1909 10.666 21.8171 10.666 21.4394C10.666 21.0618 10.7416 20.688 10.8884 20.3401C11.0353 19.9922 11.2503 19.6772 11.5209 19.4137C11.7914 19.1503 12.112 18.9437 12.4637 18.8062C12.8154 18.6686 13.191 18.6029 13.5685 18.613C14.2066 18.6102 14.8255 18.8304 15.3185 19.2355V18.7566H16.6933ZM21.2827 22.915H20.2431C19.9258 22.915 19.7223 22.7773 19.7223 22.492V19.9698H21.2827V18.7566H19.7283V17.2202H18.3315V18.7566H17.282V19.9758H18.3335V22.8392C18.3335 23.5615 18.8543 24.1342 19.7922 24.1342H21.2887L21.2827 22.915ZM24.4334 24.2719C26.0297 24.2719 26.9316 23.5256 26.9316 22.492C26.9316 21.7577 26.3989 21.209 25.2835 20.9735L24.1042 20.7361C23.4198 20.6123 23.2043 20.4866 23.2043 20.2392C23.2043 19.914 23.5335 19.7144 24.1421 19.7144C24.8006 19.7144 25.2835 19.89 25.4231 20.4866H26.8059C26.7281 19.3672 25.904 18.6189 24.2299 18.6189C22.7852 18.6189 21.7696 19.2056 21.7696 20.337C21.7696 21.1212 22.3283 21.632 23.5335 21.8814L24.8524 22.1807C25.3712 22.2805 25.5109 22.4162 25.5109 22.6277C25.5109 22.9649 25.1118 23.1764 24.4833 23.1764C23.6851 23.1764 23.2282 23.0028 23.0506 22.4042H21.6538C21.8534 23.5256 22.7074 24.2719 24.4314 24.2719H24.4334ZM5.06421 16.847H10.2782V18.0902H6.47295V19.8721H10.1764V21.0693H6.47295V22.8651H10.2782V24.1103H5.06421V16.847Z" fill="#06C167"/>
<path d="M26.8119 10.5376V9.5599H26.4408C26.1818 9.54955 25.9248 9.60866 25.6964 9.73111C25.468 9.85356 25.2765 10.0349 25.1418 10.2563V9.6018H24.0822V14.9075H25.1518V11.8905C25.1518 11.0684 25.6606 10.5376 26.361 10.5376H26.8119ZM19.1177 11.7728C19.1932 11.3912 19.3988 11.0475 19.6993 10.8006C19.9999 10.5536 20.3769 10.4186 20.7659 10.4186C21.1549 10.4186 21.5319 10.5536 21.8325 10.8006C22.133 11.0475 22.3386 11.3912 22.4141 11.7728H19.1177ZM20.7918 9.49804C20.4281 9.49488 20.0672 9.56383 19.7303 9.70092C19.3933 9.83802 19.0868 10.0405 18.8285 10.2967C18.5703 10.553 18.3653 10.8578 18.2256 11.1937C18.0858 11.5296 18.014 11.8899 18.0143 12.2537C18.0143 13.836 19.2654 15.0213 20.8876 15.0213C21.3381 15.0304 21.7843 14.9324 22.1894 14.7353C22.5946 14.5383 22.9472 14.2478 23.2182 13.8879L22.444 13.3252C22.2677 13.5722 22.0338 13.7726 21.7626 13.9088C21.4914 14.0451 21.1911 14.1133 20.8876 14.1074C20.4572 14.1129 20.0391 13.9637 19.7094 13.6868C19.3798 13.4099 19.1606 13.0238 19.0918 12.5989H23.4816V12.2537C23.4816 10.6733 22.3383 9.49804 20.7799 9.49804H20.7918ZM14.678 14.1074C14.3142 14.105 13.9593 13.995 13.658 13.7912C13.3568 13.5874 13.1226 13.2989 12.985 12.9622C12.8474 12.6255 12.8127 12.2555 12.8851 11.8991C12.9575 11.5426 13.1338 11.2155 13.3919 10.9592C13.6499 10.7028 13.9781 10.5286 14.335 10.4585C14.692 10.3884 15.0617 10.4255 15.3975 10.5653C15.7333 10.705 16.0203 10.9411 16.2221 11.2437C16.424 11.5463 16.5317 11.9019 16.5317 12.2656C16.5312 12.5084 16.4828 12.7486 16.3893 12.9726C16.2958 13.1966 16.159 13.3999 15.9869 13.571C15.8147 13.7421 15.6104 13.8775 15.3858 13.9696C15.1612 14.0616 14.9207 14.1084 14.678 14.1074V14.1074ZM11.7727 14.9075H12.8322V14.2411C13.0856 14.4944 13.3865 14.6953 13.7176 14.8322C14.0486 14.9692 14.4035 15.0395 14.7618 15.0392C15.1321 15.0492 15.5007 14.9848 15.8458 14.8499C16.1909 14.7151 16.5054 14.5124 16.7709 14.254C17.0364 13.9955 17.2474 13.6865 17.3915 13.3452C17.5355 13.0039 17.6098 12.6371 17.6098 12.2666C17.6098 11.8961 17.5355 11.5294 17.3915 11.1881C17.2474 10.8467 17.0364 10.5377 16.7709 10.2793C16.5054 10.0209 16.1909 9.81821 15.8458 9.68335C15.5007 9.54848 15.1321 9.48411 14.7618 9.49405C14.405 9.49385 14.0517 9.56428 13.7222 9.70126C13.3928 9.83825 13.0937 10.0391 12.8422 10.2922V7.62437H11.7727V14.9075ZM8.00142 14.0535C9.02904 14.0535 9.8232 13.2733 9.8232 12.12V7.62437H10.9366V14.9075H9.83318V14.2311C9.57707 14.4891 9.27152 14.6928 8.93483 14.83C8.59813 14.9671 8.23722 15.0349 7.87371 15.0292C6.2774 15.0292 5.06421 13.8939 5.06421 12.1778V7.62437H6.18562V12.12C6.18562 13.2953 6.9698 14.0535 8.0094 14.0535" fill="#F6F0EA"/>
</svg>
