<svg width="32" height="32" viewBox="0 0 32 32" fill="none" xmlns="http://www.w3.org/2000/svg">
<g clip-path="url(#clip0)">
<circle cx="15.9999" cy="16" r="14.7692" fill="white"/>
<path d="M15.984 23.6445C18.1407 23.6445 19.8821 22.1108 19.8821 20.2257H12.1018C12.1018 22.1108 13.8272 23.6445 15.984 23.6445Z" fill="#D70F64"/>
<path d="M29.1323 7.34898C30.011 6.58213 30.5861 5.4638 30.5861 4.18572C30.5861 1.88517 28.7169 0.015976 26.4004 0.015976C24.9146 0.015976 23.6205 0.782826 22.8856 1.9331C20.8088 0.92661 18.4763 0.351473 16.016 0.351473C13.5556 0.351473 11.2231 0.910634 9.14626 1.91712C8.39538 0.76685 7.1173 0 5.63153 0C3.33098 0 1.44581 1.8692 1.44581 4.16975C1.44581 5.43185 2.00497 6.56615 2.88365 7.31702C1.17422 9.84124 0.167725 12.8927 0.167725 16.1677C0.167725 24.9066 7.27706 32 16 32C24.7229 32 31.8322 24.9066 31.8322 16.1677C31.8482 12.9246 30.8417 9.87319 29.1323 7.34898ZM16.016 30.8018C7.96403 30.8018 1.41386 24.2516 1.41386 16.1997C1.41386 13.1643 2.34047 10.3525 3.92209 8.01997C5.35994 5.91113 7.34097 4.18572 9.64151 3.0674C11.5586 2.12481 13.7154 1.5976 16 1.5976C18.2846 1.5976 20.4413 2.12481 22.3744 3.0674C24.6909 4.18572 26.656 5.91113 28.0938 8.01997C29.6755 10.3525 30.6021 13.1643 30.6021 16.1997C30.6181 24.2516 24.0679 30.8018 16.016 30.8018Z" fill="#D70F64"/>
<path d="M15.984 19.2511C16.2236 19.315 18.7318 18.4683 18.7318 17.2861C18.7318 16.631 16.7029 16.5032 15.984 16.5032C15.281 16.5032 13.2361 16.631 13.2361 17.2861C13.2361 18.4683 15.7443 19.315 15.984 19.2511Z" fill="#D70F64"/>
<path d="M25.1862 9.34598C23.8123 8.43535 20.7608 7.89216 19.5786 9.47379C19.5786 9.47379 18.0769 11.0874 19.5467 12.7649C21.0324 14.4423 22.1667 16.008 22.5022 17.366C22.8377 18.7239 23.3809 19.2831 24.4833 19.2991C25.5856 19.2991 27.6944 17.6216 27.966 14.9216C28.2376 12.2217 26.5602 10.2406 25.1862 9.34598ZM22.0389 12.7968C21.5756 12.7968 21.2082 12.4294 21.2082 11.9661C21.2082 11.5027 21.5916 11.1353 22.0389 11.1353C22.5022 11.1353 22.8697 11.5027 22.8697 11.9661C22.8537 12.4134 22.4863 12.7968 22.0389 12.7968Z" fill="#D70F64"/>
<path d="M12.3894 9.45781C11.1912 7.89216 8.13977 8.41937 6.7818 9.33C5.40787 10.2406 3.73038 12.2057 4.00197 14.9056C4.25759 17.6056 6.3824 19.2831 7.48475 19.2831C8.5871 19.2831 9.13028 18.7239 9.46578 17.35C9.80128 15.992 10.9515 14.4264 12.4213 12.7489C13.8911 11.0714 12.3894 9.45781 12.3894 9.45781ZM10.1847 12.7968C9.72139 12.7968 9.35395 12.4294 9.35395 11.966C9.35395 11.5027 9.72139 11.1353 10.1847 11.1353C10.648 11.1353 11.0155 11.5027 11.0155 11.966C10.9995 12.4134 10.632 12.7968 10.1847 12.7968Z" fill="#D70F64"/>
</g>
<defs>
<clipPath id="clip0">
<rect width="32" height="32" fill="white"/>
</clipPath>
</defs>
</svg>
